<svg xmlns="http://www.w3.org/2000/svg" version="1.1" xmlns:xlink="http://www.w3.org/1999/xlink" xmlns:svgjs="http://svgjs.dev/svgjs" viewBox="0 0 27.371292448518975 9.324579507219543"><g transform="matrix(1,0,0,1,8.42671285580567,1.4493022047816457)"><rect width="27.371292448518975" height="27.371292448518975" x="-8.42671285580567" y="-10.472658675431362" fill="#102036"></rect><g><path d=" M 0.030029296875 0.017578125000000222 L 0.49365234375 0.017578125000000222 L 0.6796875 0.7170410156250002 L 0.799072265625 0.3046875000000002 L 0.71044921875 0.017578125000000222 L 1.174072265625 0.017578125000000222 L 1.345458984375 0.7170410156250002 L 1.525634765625 0.017578125000000222 L 1.716796875 0.016845703125000222 L 1.390869140625 1.1059570312500002 L 1.0458984375 1.1052246093750002 L 0.884765625 0.5830078125000002 L 0.72509765625 1.1059570312500002 L 0.380126953125 1.1052246093750002 L 0.030029296875 0.017578125000000222 M 1.888916015625 0.017578125000000222 L 2.808837890625 0.017578125000000222 L 2.808837890625 0.18530273437500022 L 2.31298828125 0.18530273437500022 L 2.312255859375 0.4790039062500002 L 2.691650390625 0.4790039062500002 L 2.691650390625 0.6467285156250002 L 2.312255859375 0.6467285156250002 L 2.312255859375 0.9382324218750002 L 2.808837890625 0.9382324218750002 L 2.808837890625 1.1059570312500002 L 1.888916015625 1.1059570312500002 L 1.888916015625 0.017578125000000222 M 3.0498046875 0.017578125000000222 L 3.62548828125 0.017578125000000222 Q 3.7470703125 0.017578125000000222 3.8382568359375 0.03808593750000022 Q 3.929443359375 0.05859375000000022 3.9906005859375 0.09631347656250022 Q 4.0517578125 0.13403320312500022 4.08251953125 0.18713378906250022 Q 4.11328125 0.24023437500000022 4.11328125 0.3054199218750002 Q 4.11328125 0.3706054687500002 4.0770263671875 0.4281005859375002 Q 4.040771484375 0.4855957031250002 3.97119140625 0.5273437500000002 Q 4.08544921875 0.5603027343750002 4.141845703125 0.6240234375000002 Q 4.1982421875 0.6877441406250002 4.1982421875 0.7800292968750002 Q 4.1982421875 0.8430175781250002 4.1678466796875 0.9016113281250002 Q 4.137451171875 0.9602050781250002 4.0770263671875 1.0056152343750002 Q 4.0166015625 1.0510253906250002 3.92578125 1.0784912109375002 Q 3.8349609375 1.1059570312500002 3.71337890625 1.1059570312500002 L 3.0498046875 1.1059570312500002 L 3.0498046875 0.017578125000000222 M 3.5185546875 0.4599609375000002 Q 3.57861328125 0.4599609375000002 3.61962890625 0.4486083984375002 Q 3.66064453125 0.4372558593750002 3.6851806640625 0.4174804687500002 Q 3.709716796875 0.3977050781250002 3.7203369140625 0.3720703125000002 Q 3.73095703125 0.3464355468750002 3.73095703125 0.3186035156250002 Q 3.73095703125 0.2907714843750002 3.7203369140625 0.2651367187500002 Q 3.709716796875 0.23950195312500022 3.6851806640625 0.22009277343750022 Q 3.66064453125 0.20068359375000022 3.61962890625 0.18896484375000022 Q 3.57861328125 0.17724609375000022 3.5185546875 0.17724609375000022 L 3.473876953125 0.17724609375000022 L 3.47314453125 0.4599609375000002 L 3.5185546875 0.4599609375000002 M 3.5185546875 0.9462890625000002 Q 3.583740234375 0.9462890625000002 3.62841796875 0.9323730468750002 Q 3.673095703125 0.9184570312500002 3.700927734375 0.8942871093750002 Q 3.728759765625 0.8701171875000002 3.7412109375 0.8375244140625002 Q 3.753662109375 0.8049316406250002 3.753662109375 0.7675781250000002 Q 3.753662109375 0.7346191406250002 3.740478515625 0.7031250000000002 Q 3.727294921875 0.6716308593750002 3.7012939453125 0.6470947265625002 Q 3.67529296875 0.6225585937500002 3.63720703125 0.6075439453125002 Q 3.59912109375 0.5925292968750002 3.54931640625 0.5925292968750002 L 3.47314453125 0.5925292968750002 L 3.47314453125 0.9462890625000002 L 3.5185546875 0.9462890625000002 M 4.614990234375 0.18457031250000022 L 4.304443359375 0.18457031250000022 L 4.304443359375 0.016845703125000222 L 5.348876953125 0.016845703125000222 L 5.348876953125 0.18457031250000022 L 5.038330078125 0.18457031250000022 L 5.038330078125 1.1059570312500002 L 4.614990234375 1.1059570312500002 L 4.614990234375 0.18457031250000022 M 5.53125 0.017578125000000222 L 6.451171875 0.017578125000000222 L 6.451171875 0.18530273437500022 L 5.955322265625 0.18530273437500022 L 5.95458984375 0.4790039062500002 L 6.333984375 0.4790039062500002 L 6.333984375 0.6467285156250002 L 5.95458984375 0.6467285156250002 L 5.95458984375 0.9382324218750002 L 6.451171875 0.9382324218750002 L 6.451171875 1.1059570312500002 L 5.53125 1.1059570312500002 L 5.53125 0.017578125000000222 M 6.62841796875 0.5625000000000002 Q 6.62841796875 0.4848632812500002 6.6485595703125 0.4127197265625002 Q 6.668701171875 0.3405761718750002 6.70751953125 0.2783203125000002 Q 6.746337890625 0.21606445312500022 6.802734375 0.16479492187500022 Q 6.859130859375 0.11352539062500022 6.9312744140625 0.07690429687500022 Q 7.00341796875 0.04028320312500022 7.090576171875 0.020141601562500222 Q 7.177734375 2.220446049250313e-16 7.278076171875 2.220446049250313e-16 Q 7.342529296875 2.220446049250313e-16 7.4014892578125 0.008056640625000222 Q 7.46044921875 0.016113281250000222 7.512451171875 0.030395507812500222 Q 7.564453125 0.04467773437500022 7.6087646484375 0.06335449218750022 Q 7.653076171875 0.08203125000000022 7.68896484375 0.10253906250000022 L 7.6259765625 0.22558593750000022 Q 7.5849609375 0.20581054687500022 7.5325927734375 0.19226074218750022 Q 7.480224609375 0.17871093750000022 7.423828125 0.17871093750000022 Q 7.348388671875 0.17871093750000022 7.283935546875 0.20581054687500022 Q 7.219482421875 0.23291015625000022 7.172607421875 0.2827148437500002 Q 7.125732421875 0.3325195312500002 7.0989990234375 0.4031982421875002 Q 7.072265625 0.4738769531250002 7.072265625 0.5617675781250002 Q 7.072265625 0.6489257812500002 7.0986328125 0.7196044921875002 Q 7.125 0.7902832031250002 7.1715087890625 0.8404541015625002 Q 7.218017578125 0.8906250000000002 7.2821044921875 0.9180908203125002 Q 7.34619140625 0.9455566406250002 7.4208984375 0.9455566406250002 Q 7.4736328125 0.9455566406250002 7.5263671875 0.9327392578125002 Q 7.5791015625 0.9199218750000002 7.623046875 0.8986816406250002 L 7.68603515625 1.0217285156250002 Q 7.650146484375 1.0429687500000002 7.606201171875 1.0612792968750002 Q 7.562255859375 1.0795898437500002 7.510986328125 1.0938720703125002 Q 7.459716796875 1.1081542968750002 7.401123046875 1.1162109375000002 Q 7.342529296875 1.1242675781250002 7.278076171875 1.1242675781250002 Q 7.1279296875 1.1242675781250002 7.0074462890625 1.0799560546875002 Q 6.886962890625 1.0356445312500002 6.802734375 0.9591064453125002 Q 6.718505859375 0.8825683593750002 6.6734619140625 0.7803955078125002 Q 6.62841796875 0.6782226562500002 6.62841796875 0.5625000000000002 M 7.880859375 0.017578125000000222 L 8.30419921875 0.017578125000000222 L 8.30419921875 0.4738769531250002 L 8.616943359375 0.4738769531250002 L 8.616943359375 0.017578125000000222 L 9.041015625 0.017578125000000222 L 9.040283203125 1.1059570312500002 L 8.616943359375 1.1059570312500002 L 8.616943359375 0.6416015625000002 L 8.30419921875 0.6416015625000002 L 8.30419921875 1.1059570312500002 L 7.880859375 1.1059570312500002 L 7.880859375 0.017578125000000222 M 9.821044921875 0.017578125000000222 L 10.2451171875 0.017578125000000222 L 10.244384765625 1.1059570312500002 L 9.821044921875 1.1059570312500002 L 9.821044921875 0.017578125000000222 M 10.546875 0.017578125000000222 L 10.81201171875 0.017578125000000222 L 11.502685546875 0.5976562500000002 L 11.50341796875 0.017578125000000222 L 11.66455078125 0.017578125000000222 L 11.66455078125 1.1059570312500002 L 11.3994140625 1.1059570312500002 L 10.7080078125 0.5280761718750002 L 10.7080078125 1.1059570312500002 L 10.546875 1.1059570312500002 L 10.546875 0.017578125000000222 M 11.98095703125 0.8642578125000002 Q 12.05859375 0.9038085937500002 12.1435546875 0.9235839843750002 Q 12.228515625 0.9433593750000002 12.3017578125 0.9433593750000002 Q 12.385986328125 0.9433593750000002 12.4251708984375 0.9191894531250002 Q 12.46435546875 0.8950195312500002 12.46435546875 0.8532714843750002 Q 12.46435546875 0.8400878906250002 12.4595947265625 0.8261718750000002 Q 12.454833984375 0.8122558593750002 12.4412841796875 0.7987060546875002 Q 12.427734375 0.7851562500000002 12.4039306640625 0.7716064453125002 Q 12.380126953125 0.7580566406250002 12.342041015625 0.7448730468750002 L 12.2109375 0.7001953125000002 Q 12.0703125 0.6518554687500002 11.999267578125 0.5694580078125002 Q 11.92822265625 0.4870605468750002 11.92822265625 0.3735351562500002 Q 11.92822265625 0.3002929687500002 11.958984375 0.23254394531250022 Q 11.98974609375 0.16479492187500022 12.052001953125 0.11315917968750022 Q 12.1142578125 0.06152343750000022 12.2091064453125 0.030761718750000222 Q 12.303955078125 2.220446049250313e-16 12.431396484375 2.220446049250313e-16 Q 12.494384765625 2.220446049250313e-16 12.55224609375 0.007324218750000222 Q 12.610107421875 0.014648437500000222 12.6610107421875 0.026367187500000222 Q 12.7119140625 0.03808593750000022 12.75439453125 0.05310058593750022 Q 12.796875 0.06811523437500022 12.8291015625 0.08276367187500022 L 12.75 0.22558593750000022 Q 12.7265625 0.21093750000000022 12.7005615234375 0.19995117187500022 Q 12.674560546875 0.18896484375000022 12.6485595703125 0.18164062500000022 Q 12.62255859375 0.17431640625000022 12.59765625 0.17065429687500022 Q 12.57275390625 0.16699218750000022 12.55224609375 0.16699218750000022 Q 12.51708984375 0.16699218750000022 12.49072265625 0.17614746093750022 Q 12.46435546875 0.18530273437500022 12.4464111328125 0.20031738281250022 Q 12.428466796875 0.21533203125000022 12.4193115234375 0.23400878906250022 Q 12.41015625 0.2526855468750002 12.41015625 0.2709960937500002 Q 12.41015625 0.2871093750000002 12.4178466796875 0.3021240234375002 Q 12.425537109375 0.3171386718750002 12.4442138671875 0.3314208984375002 Q 12.462890625 0.3457031250000002 12.4932861328125 0.3599853515625002 Q 12.523681640625 0.3742675781250002 12.569091796875 0.3896484375000002 L 12.656982421875 0.4189453125000002 Q 12.7998046875 0.4665527343750002 12.875244140625 0.5500488281250002 Q 12.95068359375 0.6335449218750002 12.95068359375 0.7521972656250002 Q 12.95068359375 0.8327636718750002 12.9144287109375 0.9008789062500002 Q 12.878173828125 0.9689941406250002 12.806396484375 1.0184326171875002 Q 12.734619140625 1.0678710937500002 12.6280517578125 1.0953369140625002 Q 12.521484375 1.1228027343750002 12.380859375 1.1228027343750002 Q 12.3134765625 1.1228027343750002 12.2508544921875 1.1158447265625002 Q 12.188232421875 1.1088867187500002 12.1285400390625 1.0949707031250002 Q 12.06884765625 1.0810546875000002 12.010986328125 1.0598144531250002 Q 11.953125 1.0385742187500002 11.895263671875 1.0100097656250002 L 11.98095703125 0.8642578125000002 M 13.177001953125 0.017578125000000222 L 13.60107421875 0.017578125000000222 L 13.600341796875 1.1059570312500002 L 13.177001953125 1.1059570312500002 L 13.177001953125 0.017578125000000222 M 13.839111328125 0.5625000000000002 Q 13.839111328125 0.4848632812500002 13.8592529296875 0.4127197265625002 Q 13.87939453125 0.3405761718750002 13.918212890625 0.2783203125000002 Q 13.95703125 0.21606445312500022 14.013427734375 0.16479492187500022 Q 14.06982421875 0.11352539062500022 14.1419677734375 0.07690429687500022 Q 14.214111328125 0.04028320312500022 14.30126953125 0.020141601562500222 Q 14.388427734375 2.220446049250313e-16 14.48876953125 2.220446049250313e-16 Q 14.55322265625 2.220446049250313e-16 14.6121826171875 0.008056640625000222 Q 14.671142578125 0.016113281250000222 14.72314453125 0.030395507812500222 Q 14.775146484375 0.04467773437500022 14.8194580078125 0.06335449218750022 Q 14.86376953125 0.08203125000000022 14.899658203125 0.10253906250000022 L 14.836669921875 0.22558593750000022 Q 14.795654296875 0.20581054687500022 14.7432861328125 0.19226074218750022 Q 14.69091796875 0.17871093750000022 14.634521484375 0.17871093750000022 Q 14.55908203125 0.17871093750000022 14.49462890625 0.20581054687500022 Q 14.43017578125 0.23291015625000022 14.38330078125 0.2827148437500002 Q 14.33642578125 0.3325195312500002 14.3096923828125 0.4031982421875002 Q 14.282958984375 0.4738769531250002 14.282958984375 0.5617675781250002 Q 14.282958984375 0.6489257812500002 14.309326171875 0.7196044921875002 Q 14.335693359375 0.7902832031250002 14.3822021484375 0.8404541015625002 Q 14.4287109375 0.8906250000000002 14.4927978515625 0.9180908203125002 Q 14.556884765625 0.9455566406250002 14.631591796875 0.9455566406250002 L 14.631591796875 0.5771484375000002 L 15.05859375 0.5771484375000002 L 14.982421875 0.7155761718750002 L 14.982421875 1.0114746093750002 L 14.983154296875 1.0129394531250002 Q 14.947265625 1.0341796875000002 14.89453125 1.0539550781250002 Q 14.841796875 1.0737304687500002 14.7769775390625 1.0894775390625002 Q 14.712158203125 1.1052246093750002 14.638916015625 1.1147460937500002 Q 14.565673828125 1.1242675781250002 14.48876953125 1.1242675781250002 Q 14.338623046875 1.1242675781250002 14.2181396484375 1.0799560546875002 Q 14.09765625 1.0356445312500002 14.013427734375 0.9591064453125002 Q 13.92919921875 0.8825683593750002 13.8841552734375 0.7803955078125002 Q 13.839111328125 0.6782226562500002 13.839111328125 0.5625000000000002 M 15.245361328125 0.017578125000000222 L 15.668701171875 0.017578125000000222 L 15.668701171875 0.4738769531250002 L 15.9814453125 0.4738769531250002 L 15.9814453125 0.017578125000000222 L 16.405517578125 0.017578125000000222 L 16.40478515625 1.1059570312500002 L 15.9814453125 1.1059570312500002 L 15.9814453125 0.6416015625000002 L 15.668701171875 0.6416015625000002 L 15.668701171875 1.1059570312500002 L 15.245361328125 1.1059570312500002 L 15.245361328125 0.017578125000000222 M 16.8984375 0.18457031250000022 L 16.587890625 0.18457031250000022 L 16.587890625 0.016845703125000222 L 17.63232421875 0.016845703125000222 L 17.63232421875 0.18457031250000022 L 17.32177734375 0.18457031250000022 L 17.32177734375 1.1059570312500002 L 16.8984375 1.1059570312500002 L 16.8984375 0.18457031250000022 M 0.13916015625 4.441845703125001 L 1.05908203125 4.441845703125001 L 1.05908203125 4.609570312500001 L 0.563232421875 4.609570312500001 L 0.5625 4.903271484375001 L 0.94189453125 4.903271484375001 L 0.94189453125 5.070996093750001 L 0.5625 5.070996093750001 L 0.5625 5.362500000000001 L 1.05908203125 5.362500000000001 L 1.05908203125 5.530224609375001 L 0.13916015625 5.530224609375001 L 0.13916015625 4.441845703125001 M 1.535888671875 5.007275390625001 L 1.182861328125 4.441845703125001 L 1.6611328125 4.441845703125001 L 1.87353515625 4.781689453125001 L 2.09033203125 4.441845703125001 L 2.281494140625 4.441845703125001 L 1.963623046875 4.926708984375001 L 2.341552734375 5.530224609375001 L 1.86328125 5.530957031250001 L 1.62451171875 5.150097656250001 L 1.377685546875 5.530957031250001 L 1.185791015625 5.530957031250001 L 1.535888671875 5.007275390625001 M 2.515869140625 4.441845703125001 L 3.03955078125 4.441845703125001 Q 3.1845703125 4.441113281250001 3.2896728515625 4.467114257812501 Q 3.394775390625 4.493115234375001 3.462890625 4.541455078125001 Q 3.531005859375 4.589794921875001 3.5635986328125 4.657543945312501 Q 3.59619140625 4.725292968750001 3.59619140625 4.808056640625001 Q 3.59619140625 4.880566406250001 3.5657958984375 4.946850585937501 Q 3.535400390625 5.013134765625001 3.4720458984375 5.063671875000001 Q 3.40869140625 5.114208984375001 3.3109130859375 5.144238281250001 Q 3.213134765625 5.174267578125001 3.078369140625 5.174267578125001 L 2.939208984375 5.174267578125001 L 2.939208984375 5.530224609375001 L 2.515869140625 5.530224609375001 L 2.515869140625 4.441845703125001 M 2.939208984375 5.014599609375001 Q 2.98974609375 5.013867187500001 3.029296875 4.998852539062501 Q 3.06884765625 4.983837890625001 3.095947265625 4.957104492187501 Q 3.123046875 4.930371093750001 3.1373291015625 4.892651367187501 Q 3.151611328125 4.854931640625001 3.151611328125 4.808056640625001 Q 3.151611328125 4.761914062500001 3.136962890625 4.724560546875001 Q 3.122314453125 4.687207031250001 3.0948486328125 4.660473632812501 Q 3.0673828125 4.633740234375001 3.0281982421875 4.618359375000001 Q 2.989013671875 4.602978515625001 2.939208984375 4.601513671875001 L 2.939208984375 5.014599609375001 M 3.794677734375 4.441845703125001 L 4.21875 4.441845703125001 L 4.218017578125 5.362500000000001 L 4.634033203125 5.362500000000001 L 4.634033203125 5.530224609375001 L 3.794677734375 5.530224609375001 L 3.794677734375 4.441845703125001 M 4.767333984375 4.983837890625001 Q 4.767333984375 4.860058593750001 4.806884765625 4.757153320312501 Q 4.846435546875 4.654248046875001 4.9248046875 4.580273437500001 Q 5.003173828125 4.506298828125001 5.120361328125 4.465283203125001 Q 5.237548828125 4.424267578125001 5.392822265625 4.424267578125001 Q 5.548095703125 4.424267578125001 5.665283203125 4.465283203125001 Q 5.782470703125 4.506298828125001 5.86083984375 4.580273437500001 Q 5.939208984375 4.654248046875001 5.978759765625 4.757153320312501 Q 6.018310546875 4.860058593750001 6.018310546875 4.983837890625001 Q 6.018310546875 5.109082031250001 5.978759765625 5.213085937500001 Q 5.939208984375 5.317089843750001 5.86083984375 5.391064453125001 Q 5.782470703125 5.465039062500001 5.665283203125 5.506054687500001 Q 5.548095703125 5.547070312500001 5.392822265625 5.547070312500001 Q 5.237548828125 5.547070312500001 5.120361328125 5.506054687500001 Q 5.003173828125 5.465039062500001 4.9248046875 5.391064453125001 Q 4.846435546875 5.317089843750001 4.806884765625 5.213085937500001 Q 4.767333984375 5.109082031250001 4.767333984375 4.983837890625001 M 5.392822265625 5.395458984375001 Q 5.436767578125 5.395458984375001 5.470458984375 5.380078125000001 Q 5.504150390625 5.364697265625001 5.52685546875 5.320019531250001 Q 5.549560546875 5.275341796875001 5.561279296875 5.194775390625001 Q 5.572998046875 5.114208984375001 5.572998046875 4.983837890625001 Q 5.572998046875 4.854931640625001 5.561279296875 4.775097656250001 Q 5.549560546875 4.695263671875001 5.52685546875 4.651318359375001 Q 5.504150390625 4.607373046875001 5.470458984375 4.591992187500001 Q 5.436767578125 4.576611328125001 5.392822265625 4.576611328125001 Q 5.348876953125 4.576611328125001 5.3148193359375 4.591992187500001 Q 5.28076171875 4.607373046875001 5.258056640625 4.651318359375001 Q 5.2353515625 4.695263671875001 5.2236328125 4.775097656250001 Q 5.2119140625 4.854931640625001 5.2119140625 4.983837890625001 Q 5.2119140625 5.114208984375001 5.2236328125 5.194775390625001 Q 5.2353515625 5.275341796875001 5.258056640625 5.320019531250001 Q 5.28076171875 5.364697265625001 5.3148193359375 5.380078125000001 Q 5.348876953125 5.395458984375001 5.392822265625 5.395458984375001 M 6.25634765625 4.441845703125001 L 6.884033203125 4.441845703125001 Q 7.005615234375 4.441845703125001 7.0968017578125 4.467480468750001 Q 7.18798828125 4.493115234375001 7.2491455078125 4.539257812500001 Q 7.310302734375 4.585400390625001 7.341064453125 4.649853515625001 Q 7.371826171875 4.714306640625001 7.371826171875 4.791943359375001 Q 7.371826171875 4.887890625000001 7.326416015625 4.962231445312501 Q 7.281005859375 5.036572265625001 7.191650390625 5.080517578125001 L 7.420166015625 5.530957031250001 L 6.94189453125 5.530957031250001 L 6.76904296875 5.135449218750001 L 6.6796875 5.135449218750001 L 6.6796875 5.530224609375001 L 6.25634765625 5.530224609375001 L 6.25634765625 4.441845703125001 M 6.705322265625 5.002880859375001 Q 6.75732421875 5.002880859375001 6.79833984375 4.988232421875001 Q 6.83935546875 4.973583984375001 6.867919921875 4.946850585937501 Q 6.896484375 4.920117187500001 6.911865234375 4.883129882812501 Q 6.92724609375 4.846142578125001 6.92724609375 4.802197265625001 Q 6.92724609375 4.758251953125001 6.911865234375 4.721264648437501 Q 6.896484375 4.684277343750001 6.867919921875 4.657543945312501 Q 6.83935546875 4.630810546875001 6.79833984375 4.616162109375001 Q 6.75732421875 4.601513671875001 6.705322265625 4.601513671875001 L 6.680419921875 4.601513671875001 L 6.6796875 5.002880859375001 L 6.705322265625 5.002880859375001 M 7.645751953125 4.441845703125001 L 8.565673828125 4.441845703125001 L 8.565673828125 4.609570312500001 L 8.06982421875 4.609570312500001 L 8.069091796875 4.903271484375001 L 8.448486328125 4.903271484375001 L 8.448486328125 5.070996093750001 L 8.069091796875 5.070996093750001 L 8.069091796875 5.362500000000001 L 8.565673828125 5.362500000000001 L 8.565673828125 5.530224609375001 L 7.645751953125 5.530224609375001 L 7.645751953125 4.441845703125001 M 8.806640625 4.441845703125001 L 9.434326171875 4.441845703125001 Q 9.555908203125 4.441845703125001 9.6470947265625 4.467480468750001 Q 9.73828125 4.493115234375001 9.7994384765625 4.539257812500001 Q 9.860595703125 4.585400390625001 9.891357421875 4.649853515625001 Q 9.922119140625 4.714306640625001 9.922119140625 4.791943359375001 Q 9.922119140625 4.887890625000001 9.876708984375 4.962231445312501 Q 9.831298828125 5.036572265625001 9.741943359375 5.080517578125001 L 9.970458984375 5.530957031250001 L 9.4921875 5.530957031250001 L 9.3193359375 5.135449218750001 L 9.22998046875 5.135449218750001 L 9.22998046875 5.530224609375001 L 8.806640625 5.530224609375001 L 8.806640625 4.441845703125001 M 9.255615234375 5.002880859375001 Q 9.3076171875 5.002880859375001 9.3486328125 4.988232421875001 Q 9.3896484375 4.973583984375001 9.418212890625 4.946850585937501 Q 9.44677734375 4.920117187500001 9.462158203125 4.883129882812501 Q 9.4775390625 4.846142578125001 9.4775390625 4.802197265625001 Q 9.4775390625 4.758251953125001 9.462158203125 4.721264648437501 Q 9.44677734375 4.684277343750001 9.418212890625 4.657543945312501 Q 9.3896484375 4.630810546875001 9.3486328125 4.616162109375001 Q 9.3076171875 4.601513671875001 9.255615234375 4.601513671875001 L 9.230712890625 4.601513671875001 L 9.22998046875 5.002880859375001 L 9.255615234375 5.002880859375001" fill="#ffffff" fill-rule="nonzero"></path></g><g><path d=" M 0.267 5.89722509765625 L 0.3165 5.89722509765625 L 0.3915 6.08622509765625 L 0.46725 5.89722509765625 L 0.5175 5.89722509765625 L 0.4245 6.1244750976562505 L 0.5265 6.365225097656251 L 0.7192500000000001 5.893475097656251 L 0.77625 5.893475097656251 L 0.5505 6.42597509765625 L 0.504 6.42597509765625 L 0.39225 6.16272509765625 L 0.27975 6.42597509765625 L 0.234 6.42597509765625 L 0.009000000000000001 5.893475097656251 L 0.06525 5.893475097656251 L 0.25875 6.365225097656251 L 0.36 6.1244750976562505 L 0.267 5.89722509765625 M 1.227015380859375 6.37947509765625 L 1.227015380859375 6.42597509765625 L 0.869265380859375 6.42597509765625 L 0.869265380859375 5.893475097656251 L 1.220265380859375 5.893475097656251 L 1.220265380859375 5.939975097656251 L 0.921765380859375 5.939975097656251 L 0.921765380859375 6.131975097656251 L 1.182015380859375 6.131975097656251 L 1.182015380859375 6.176225097656251 L 0.921765380859375 6.176225097656251 L 0.921765380859375 6.37947509765625 L 1.227015380859375 6.37947509765625 M 1.74452197265625 6.2887250976562505 Q 1.74452197265625 6.32847509765625 1.72427197265625 6.359600097656251 Q 1.70402197265625 6.390725097656251 1.66989697265625 6.408350097656251 Q 1.63577197265625 6.42597509765625 1.59527197265625 6.42597509765625 L 1.3440219726562501 6.42597509765625 L 1.3440219726562501 5.893475097656251 L 1.60052197265625 5.893475097656251 Q 1.63802197265625 5.893475097656251 1.66539697265625 5.9133500976562505 Q 1.69277197265625 5.93322509765625 1.7073969726562501 5.964350097656251 Q 1.72202197265625 5.99547509765625 1.72202197265625 6.0292250976562505 Q 1.72202197265625 6.06897509765625 1.7017719726562501 6.102725097656251 Q 1.68152197265625 6.13647509765625 1.64552197265625 6.152975097656251 Q 1.6912719726562502 6.16647509765625 1.71789697265625 6.203225097656251 Q 1.74452197265625 6.2399750976562505 1.74452197265625 6.2887250976562505 M 1.69202197265625 6.27972509765625 Q 1.69202197265625 6.25272509765625 1.68002197265625 6.22985009765625 Q 1.66802197265625 6.20697509765625 1.64739697265625 6.1927250976562505 Q 1.62677197265625 6.178475097656251 1.60052197265625 6.178475097656251 L 1.39652197265625 6.178475097656251 L 1.39652197265625 6.3802250976562505 L 1.59527197265625 6.3802250976562505 Q 1.62227197265625 6.3802250976562505 1.6440219726562502 6.365975097656251 Q 1.66577197265625 6.35172509765625 1.6788969726562502 6.32885009765625 Q 1.69202197265625 6.30597509765625 1.69202197265625 6.27972509765625 M 1.39652197265625 5.939225097656251 L 1.39652197265625 6.13572509765625 L 1.57952197265625 6.13572509765625 Q 1.60577197265625 6.13572509765625 1.62602197265625 6.12185009765625 Q 1.64627197265625 6.107975097656251 1.65827197265625 6.08547509765625 Q 1.67027197265625 6.062975097656251 1.67027197265625 6.037475097656251 Q 1.67027197265625 6.010475097656251 1.65902197265625 5.988350097656251 Q 1.64777197265625 5.966225097656251 1.62827197265625 5.95272509765625 Q 1.6087719726562502 5.939225097656251 1.58402197265625 5.939225097656251 L 1.39652197265625 5.939225097656251 M 2.070787353515625 6.42597509765625 L 2.070787353515625 5.893475097656251 L 2.251537353515625 5.893475097656251 Q 2.336287353515625 5.893475097656251 2.392912353515625 5.92910009765625 Q 2.449537353515625 5.964725097656251 2.4780373535156253 6.02510009765625 Q 2.506537353515625 6.08547509765625 2.506537353515625 6.15897509765625 Q 2.506537353515625 6.2399750976562505 2.475412353515625 6.29997509765625 Q 2.444287353515625 6.359975097656251 2.386912353515625 6.39297509765625 Q 2.329537353515625 6.42597509765625 2.251537353515625 6.42597509765625 L 2.070787353515625 6.42597509765625 M 2.4540373535156252 6.15897509765625 Q 2.4540373535156252 6.09522509765625 2.4304123535156252 6.04572509765625 Q 2.4067873535156252 5.99622509765625 2.3617873535156253 5.968100097656251 Q 2.316787353515625 5.939975097656251 2.251537353515625 5.939975097656251 L 2.123287353515625 5.939975097656251 L 2.123287353515625 6.37947509765625 L 2.251537353515625 6.37947509765625 Q 2.317537353515625 6.37947509765625 2.362537353515625 6.35022509765625 Q 2.4075373535156253 6.32097509765625 2.4307873535156252 6.271100097656251 Q 2.4540373535156252 6.221225097656251 2.4540373535156252 6.15897509765625 M 2.9828074951171875 6.37947509765625 L 2.9828074951171875 6.42597509765625 L 2.6250574951171872 6.42597509765625 L 2.6250574951171872 5.893475097656251 L 2.976057495117187 5.893475097656251 L 2.976057495117187 5.939975097656251 L 2.6775574951171874 5.939975097656251 L 2.6775574951171874 6.131975097656251 L 2.9378074951171875 6.131975097656251 L 2.9378074951171875 6.176225097656251 L 2.6775574951171874 6.176225097656251 L 2.6775574951171874 6.37947509765625 L 2.9828074951171875 6.37947509765625 M 3.097564086914062 5.893475097656251 L 3.288064086914062 6.360725097656251 L 3.477814086914062 5.893475097656251 L 3.532564086914062 5.893475097656251 L 3.312064086914062 6.42597509765625 L 3.264064086914062 6.42597509765625 L 3.042814086914062 5.893475097656251 L 3.097564086914062 5.893475097656251 M 3.9848261718749995 6.37947509765625 L 3.9848261718749995 6.42597509765625 L 3.6270761718749993 6.42597509765625 L 3.6270761718749993 5.893475097656251 L 3.9780761718749993 5.893475097656251 L 3.9780761718749993 5.939975097656251 L 3.6795761718749995 5.939975097656251 L 3.6795761718749995 6.131975097656251 L 3.9398261718749996 6.131975097656251 L 3.9398261718749996 6.176225097656251 L 3.6795761718749995 6.176225097656251 L 3.6795761718749995 6.37947509765625 L 3.9848261718749995 6.37947509765625 M 4.101832763671874 6.42597509765625 L 4.101832763671874 5.893475097656251 L 4.154332763671874 5.893475097656251 L 4.154332763671874 6.37947509765625 L 4.461832763671874 6.37947509765625 L 4.461832763671874 6.42597509765625 L 4.101832763671874 6.42597509765625 M 4.7498448486328115 6.4297250976562506 Q 4.693594848632811 6.4297250976562506 4.647844848632811 6.407225097656251 Q 4.602094848632811 6.384725097656251 4.569094848632812 6.34610009765625 Q 4.536094848632811 6.30747509765625 4.518094848632812 6.25910009765625 Q 4.500094848632812 6.21072509765625 4.500094848632812 6.15972509765625 Q 4.500094848632812 6.106475097656251 4.518844848632812 6.058100097656251 Q 4.5375948486328115 6.009725097656251 4.571719848632812 5.97185009765625 Q 4.605844848632811 5.93397509765625 4.651594848632811 5.9118500976562505 Q 4.697344848632811 5.8897250976562505 4.750594848632812 5.8897250976562505 Q 4.806844848632812 5.8897250976562505 4.852594848632812 5.9129750976562505 Q 4.898344848632812 5.9362250976562505 4.930969848632811 5.97522509765625 Q 4.963594848632812 6.014225097656251 4.981594848632811 6.062225097656251 Q 4.999594848632811 6.11022509765625 4.999594848632811 6.16047509765625 Q 4.999594848632811 6.21372509765625 4.980844848632811 6.26210009765625 Q 4.962094848632812 6.3104750976562505 4.928344848632811 6.34835009765625 Q 4.894594848632812 6.386225097656251 4.848844848632812 6.407975097656251 Q 4.803094848632812 6.4297250976562506 4.7498448486328115 6.4297250976562506 M 4.552594848632811 6.15972509765625 Q 4.552594848632811 6.203225097656251 4.566844848632812 6.243350097656251 Q 4.581094848632811 6.28347509765625 4.6073448486328115 6.314600097656251 Q 4.633594848632812 6.34572509765625 4.669969848632811 6.364100097656251 Q 4.706344848632812 6.3824750976562505 4.7498448486328115 6.3824750976562505 Q 4.7955948486328115 6.3824750976562505 4.831969848632811 6.363350097656251 Q 4.868344848632812 6.34422509765625 4.894219848632812 6.3123500976562505 Q 4.920094848632812 6.28047509765625 4.933594848632811 6.2407250976562505 Q 4.947094848632812 6.200975097656251 4.947094848632812 6.15972509765625 Q 4.947094848632812 6.11622509765625 4.932844848632811 6.0764750976562505 Q 4.918594848632812 6.036725097656251 4.891969848632812 6.0052250976562505 Q 4.8653448486328115 5.97372509765625 4.829344848632812 5.95572509765625 Q 4.793344848632811 5.937725097656251 4.7498448486328115 5.937725097656251 Q 4.704844848632812 5.937725097656251 4.668469848632811 5.95647509765625 Q 4.6320948486328115 5.97522509765625 4.606219848632811 6.0071000976562505 Q 4.580344848632811 6.03897509765625 4.566469848632812 6.078725097656251 Q 4.552594848632811 6.11847509765625 4.552594848632811 6.15972509765625 M 5.116577270507811 6.42597509765625 L 5.116577270507811 5.893475097656251 L 5.3370772705078116 5.893475097656251 Q 5.371577270507811 5.893475097656251 5.400452270507811 5.90772509765625 Q 5.4293272705078115 5.921975097656251 5.450327270507811 5.94635009765625 Q 5.471327270507811 5.97072509765625 5.483327270507811 6.00035009765625 Q 5.495327270507811 6.0299750976562505 5.495327270507811 6.060725097656251 Q 5.495327270507811 6.104225097656251 5.4762022705078115 6.14285009765625 Q 5.457077270507812 6.18147509765625 5.422577270507811 6.20547509765625 Q 5.388077270507812 6.22947509765625 5.341577270507812 6.22947509765625 L 5.169077270507811 6.22947509765625 L 5.169077270507811 6.42597509765625 L 5.116577270507811 6.42597509765625 M 5.169077270507811 6.18297509765625 L 5.339327270507812 6.18297509765625 Q 5.370827270507811 6.18297509765625 5.394077270507811 6.16572509765625 Q 5.417327270507811 6.1484750976562506 5.4300772705078115 6.12072509765625 Q 5.442827270507811 6.09297509765625 5.442827270507811 6.060725097656251 Q 5.442827270507811 6.02772509765625 5.427827270507811 5.99997509765625 Q 5.412827270507812 5.97222509765625 5.388452270507812 5.95610009765625 Q 5.364077270507812 5.939975097656251 5.3348272705078115 5.939975097656251 L 5.169077270507811 5.939975097656251 L 5.169077270507811 6.18297509765625 M 6.072834228515624 6.42597509765625 L 6.072834228515624 5.99247509765625 L 5.880084228515623 6.32922509765625 L 5.847084228515624 6.32922509765625 L 5.653584228515624 5.99247509765625 L 5.653584228515624 6.42597509765625 L 5.6010842285156235 6.42597509765625 L 5.6010842285156235 5.893475097656251 L 5.655084228515624 5.893475097656251 L 5.862834228515624 6.25797509765625 L 6.072084228515624 5.893475097656251 L 6.125334228515624 5.893475097656251 L 6.125334228515624 6.42597509765625 L 6.072834228515624 6.42597509765625 M 6.634594848632811 6.37947509765625 L 6.634594848632811 6.42597509765625 L 6.276844848632811 6.42597509765625 L 6.276844848632811 5.893475097656251 L 6.627844848632811 5.893475097656251 L 6.627844848632811 5.939975097656251 L 6.329344848632811 5.939975097656251 L 6.329344848632811 6.131975097656251 L 6.589594848632811 6.131975097656251 L 6.589594848632811 6.176225097656251 L 6.329344848632811 6.176225097656251 L 6.329344848632811 6.37947509765625 L 6.634594848632811 6.37947509765625 M 6.804101440429686 5.990225097656251 L 6.804101440429686 6.42597509765625 L 6.751601440429686 6.42597509765625 L 6.751601440429686 5.893475097656251 L 6.7951014404296854 5.893475097656251 L 7.144601440429685 6.337475097656251 L 7.144601440429685 5.894225097656251 L 7.197101440429686 5.894225097656251 L 7.197101440429686 6.42597509765625 L 7.1483514404296855 6.42597509765625 L 6.804101440429686 5.990225097656251 M 7.7265809326171855 5.939975097656251 L 7.536830932617185 5.939975097656251 L 7.536830932617185 6.42597509765625 L 7.484330932617185 6.42597509765625 L 7.484330932617185 5.939975097656251 L 7.294580932617185 5.939975097656251 L 7.294580932617185 5.893475097656251 L 7.7265809326171855 5.893475097656251 L 7.7265809326171855 5.939975097656251" fill="#eda0a0" fill-rule="nonzero"></path></g><g clip-path="url(#SvgjsClipPath1002)"><g clip-path="url(#a4d50a3be-d5a3-4db9-8146-c561435ea6e16511987f-efa9-41ce-9e73-4113a5e6f8be)"><path d=" M -1.7260316451381623 0.5373748021108965 L -1.7256326336856507 0.5367762849321307 C -1.8478261190068261 0.4466263052019982 -1.974328987314709 0.36246860754875376 -2.104693513570756 0.2846010469454075 C -2.610184678203213 -0.00440075732858336 -3.182306948490553 -0.1565770294615015 -3.764581156015019 -0.1569051252576162 C -4.892507549312638 -0.15847770586427018 -5.946215783091134 0.4051179969116878 -6.571028207248597 1.3441759590874092 C -7.558182540759918 2.8251069650806464 -7.210444059896897 4.8067973439747345 -5.820687170802341 5.877145565334525 C -5.692400585551052 5.973809596538299 -5.5592921627553675 6.063902491006814 -5.421875224017946 6.1470768129579785 C -5.364417574856425 6.179596246337589 -5.306361408516127 6.210719139633419 -5.2473077135445525 6.23964746994044 C -5.2455121620082545 6.240445492845462 -5.243517104745702 6.241642527202993 -5.241721553209404 6.242241044381759 C -4.7836481732283715 6.46645114741022 -4.280368166813009 6.582939143471377 -3.770366822076421 6.5827973190995905 C -2.642331855219437 6.584392412438106 -1.5885259450369844 6.020709623546795 -0.9637202651165877 5.08151672902831 C 0.026426654288565388 3.5959970913312005 -0.3253019410995641 1.6051294490293668 -1.7260316451381623 0.5373748021108965 M -1.4509132486320757 1.400037562438898 C -1.1984609512219038 1.724114231414402 -1.0167287588631053 2.097501166649717 -0.9174349366253525 2.4961220224856238 C -1.1115540082717779 2.478565518575156 -1.297094333689225 2.4500361997206452 -1.4734573956989276 2.410733571648347 C -1.4271720672076933 2.026884554333112 -1.4301646531015235 1.6791460734700903 -1.4509132486320757 1.400037562438898 M -1.9604508734881625 0.893093512024131 L -1.945687449745269 0.9040663269681737 C -1.9087788903880343 1.0892076409331102 -1.8213953822882045 1.6300676648112815 -1.891621397930077 2.295219756146517 C -2.157942691782381 2.206477133085648 -2.414720886378263 2.091321269137521 -2.658122398203015 1.9514713898086011 Z M -4.073615525984507 3.3232727635401784 L -4.620660227376593 4.1444383328070735 C -4.908546827490236 3.971342032997001 -5.213215419848776 3.8278309606420686 -5.530007327648341 3.7160995385369024 C -5.450803554324978 3.3184846261100507 -5.31813224636519 2.951793101252773 -5.131195380863955 2.618219526953879 Z M -4.900566761312806 2.259907242599325 C -4.642805362990934 1.9087771643899631 -4.336963084641528 1.6326612392526005 -4.026133163135741 1.4146014804555362 C -3.793399462739398 1.6642258225654394 -3.535612153289293 1.889254889891439 -3.256839082695235 2.0861377550309377 L -3.83819876900323 2.9681525708057093 Z M -3.719093850428804 3.559487543426477 L -2.6591199268342907 4.266136825822818 C -2.896531741078122 4.568986518278393 -3.1862140556008454 4.833730617019203 -3.5253737902348887 5.060768133497756 C -3.746929170067815 4.807800560682388 -3.9955335116428676 4.579868646864787 -4.266737068999652 4.381052124145885 Z M -3.483876599173782 3.2043673506920083 L -2.8975292697093975 2.314970823045794 C -2.6012847186580688 2.4863690665115694 -2.2867623683813134 2.6240227844943966 -1.9598523563093933 2.725354101952987 C -2.0400536582640347 3.1131932337933277 -2.1791091494639927 3.522379478342988 -2.4163214579815673 3.9158047705184784 Z M -3.0172327054625896 1.722438816067495 C -3.2638217831141647 1.5468737769628136 -3.4741008185872713 1.3593383942828132 -3.65106239777574 1.1777881833904724 C -3.070101722920249 0.8519953324155356 -2.5338303307459507 0.7159324271094076 -2.324748329630375 0.6716421558807267 Z M -3.7645811560150166 0.2690396002974918 C -3.480247437204521 0.2690737464669777 -3.197436093959817 0.31054109408627034 -2.92506105993263 0.39213463339702426 C -3.279816133140829 0.5079135639405532 -3.6211279393867324 0.6614135826225741 -3.943138781013528 0.8500002751529823 C -4.079930199631997 0.6829194291345584 -4.204162862291909 0.5059395650983768 -4.314817949027187 0.320512077671366 C -4.1352627953974 0.2865961042079599 -3.9511190100637403 0.26903960029749174 -3.764581156015017 0.26903960029749174 M -4.739565640224764 0.43542737599442827 C -4.6892901972084235 0.5311901245969817 -4.549237177377188 0.7803727766898757 -4.307436237155741 1.087013077944302 C -4.639613271370848 1.3260209379981747 -4.966603156703317 1.628471619001239 -5.246709196365786 2.0113231076851976 L -5.255287942594764 2.023492956986772 L -6.121142794542851 1.4463228909301322 C -5.771239221092011 0.9796198329450236 -5.29027119766924 0.6276970929185705 -4.739565640224764 0.4354273759944284 M -6.025779057392809 5.0984747157600125 C -6.317082746909842 4.748046673088771 -6.522937111470943 4.334698758581874 -6.627089316326341 3.8910660604628196 C -6.4180508064288215 3.919281298040088 -6.211252795817483 3.962147552335088 -6.008222553482336 4.019348242444989 C -6.047977881427735 4.377705808136149 -6.053856062858174 4.739013573559305 -6.02577905739281 5.098474715760014 M -6.697714343420725 3.4537495085111583 C -6.74604438145233 2.882186916616466 -6.625402967911201 2.309018797768389 -6.350773885462724 1.8054331981897074 L -5.486914090777191 2.38120672416256 C -5.697991149155319 2.7498933062823907 -5.848019455299319 3.1536928962231574 -5.9391935721980005 3.5900119195435414 C -6.286732547334767 3.498638296918605 -6.56025489803081 3.4653208406339666 -6.697714343420725 3.4537495085111583 M -5.594447677228807 4.155012136298607 C -5.340556533568373 4.250667399397917 -5.095553864276999 4.368428900387013 -4.86226166187178 4.506940237412991 L -5.548760865916339 5.53678879634295 C -5.620383421641999 5.045206686849841 -5.635745362563659 4.583749942021287 -5.594447677228807 4.155012136298607 M -4.507739986316082 4.742756005846777 C -4.288631456105934 4.903835106462264 -4.085649823943401 5.085770256027301 -3.9016415899524253 5.286010098440009 C -4.281300987016294 5.488907422041672 -4.713629895811572 5.6511055774872485 -5.194837707539403 5.77380159913427 Z M -3.770366822076421 6.156653087818228 C -4.0480787930238264 6.156653087818228 -4.321800649446123 6.116552436840909 -4.585148208103146 6.040141743685121 C -4.252721141732923 5.930122649935411 -3.931097902054583 5.7898131759810525 -3.624328630457528 5.620980212822694 C -3.506728865318158 5.779421521787963 -3.400014261861643 5.945659011494737 -3.304919962722762 6.11854749410346 C -3.4588201368067524 6.14351307641056 -3.6144553561387878 6.156254751032256 -3.7703668220764164 6.156653087818228 M -2.8747856169162915 6.0181961137970355 C -2.9871224312915876 5.801669711453597 -3.115217467465695 5.593690316436916 -3.2580361170527503 5.395937753606713 C -2.884561397502802 5.141966964083673 -2.5651527297680357 4.844503926236991 -2.3028026997422897 4.503748145792905 L -1.4740559128776924 5.055979996067631 C -1.835934068445491 5.507754260014096 -2.323250838772614 5.8425112438180715 -2.8747856169162924 6.018196113797037 M -1.2340505241925426 4.7040518949532455 L -2.0617997824258643 4.152219056131033 L -2.053819553375652 4.139849701103204 C -1.790871006171141 3.7051267235928607 -1.6356555511445023 3.2570368624234125 -1.5454789628770973 2.8334862055833696 C -1.3128102703129283 2.8824907918408176 -1.0769177203278826 2.9146943253746733 -0.8396277033857684 2.9298474713646896 C -0.7795842825775354 3.548114378349236 -0.9177149164680101 4.1694576900275315 -1.2340505241925417 4.704051894953242" fill="#3682ae" transform="matrix(1,0,0,1,0,0)" fill-rule="nonzero"></path></g></g></g><defs><clipPath id="SvgjsClipPath1002"><path d=" M -7.134232872467365 -0.15682222144333968 h 6.734232872467365 v 6.73961954054293 h -6.734232872467365 Z"></path></clipPath><clipPath id="a4d50a3be-d5a3-4db9-8146-c561435ea6e16511987f-efa9-41ce-9e73-4113a5e6f8be"><path d=" M -7.134232872467365 6.5827973190995905 L -0.40011658844530995 6.5827973190995905 L -0.40011658844530995 -0.15670561953135978 L -7.134232872467365 -0.15670561953135978 Z"></path></clipPath></defs></svg>